# xmcd
#
# Track frame offsets:
# 150
# 3368
# 5817
# 9016
# 12403
# 16384
# 23383
# 32586
# 41776
# 50241
# 59150
# 69181
# 70456
# 72159
# 72755
# 77439
# 79524
# 82455
# 84379
# 86688
# 93755
# 101159
# 107811
# 115937
# 131238
# 134192
# 136141
# 138330
# 143824
# 149511
# 155633
# 162307
# 169103
# 174124
# 176825
# 177950
# 178793
# 182063
# 184603
# 186866
# 196196
# 197909
# 201142
# 202966
# 204544
# 206566
# 208611
# 211375
# 216663
# 222505
# 228713
# 234680
# 250868
# 251890
# 253049
# 254890
# 261275
# 267906
# 273578
# 279570
# 286066
# 289061
# 300850
# 314723
#
# Disc length: 4231 seconds
#
#
# Revision: 0
# Processed by: cddbd v1.5PL3 Copyright (c) Steve Scherf et al.
# Submitted via: FreeRIP 2.70 
#
DISCID=db108540
DTITLE=Carsten Köthe - RSH - Best Of Comedy Aus Carsten Köthe's Frühstück
DYEAR=2002
DGENRE=General Unclassifiable
TTITLE0=Promiparty
TTITLE1=Köthi
TTITLE2=Making Of Frühstücksclub 1
TTITLE3=Making Of Frühstücksclub 2
TTITLE4=Köthi
TTITLE5=Telefonschreck - Köthi
TTITLE6=Telefonschreck - Babysprache
TTITLE7=Telefonschreck - BGS
TTITLE8=Telefonschreck - Dubbels
TTITLE9=Telefonschreck - Lieder Im Rathaus
TTITLE10=Telefonschreck - Souflaziki
TTITLE11=Telefonschreck - Köthi
TTITLE12=Telefonschreck - Cashcall Pleite 1
TTITLE13=Telefonschreck - Köthi
TTITLE14=Telefonschreck - Cashcall Pleite 2
TTITLE15=Telefonschreck - Köthi
TTITLE16=Telefonschreck - Muttertag
TTITLE17=Telefonschreck - Kaffee
TTITLE18=Telefonschreck - Köthi
TTITLE19=Baumann&Clausen - Botengang
TTITLE20=Baumann&Clausen - Amtssauna
TTITLE21=Baumann&Clausen - Baumann Als OA
TTITLE22=Baumann&Clausen - Beamtenlied
TTITLE23=Baumann&Clausen - Beamtenparty
TTITLE24=Baumann&Clausen - Köthi
TTITLE25=Baumann&Clausen - Einkaufen Damals
TTITLE26=Kaufhaus Patzig - Einkaufen Heute
TTITLE27=Kaufhaus Patzig - Bremsstreifen
TTITLE28=Kaufhaus Patzig - Alles Duster
TTITLE29=Kaufhaus Patzig - Teuro
TTITLE30=Kaufhaus Patzig - Die Kündigung
TTITLE31=Kaufhaus Patzig - Die Kündigung 2
TTITLE32=Kaufhaus Patzig - Köthi
TTITLE33=Kaufhaus Patzig - Rauchen Verboten1
TTITLE34=Kaufhaus Patzig - Rauchen Verboten2
TTITLE35=Kaufhaus Patzig - Köthi
TTITLE36=Kaufhaus Patzig - Köthe Rettet Den Fußball 1
TTITLE37=Kaufhaus Patzig - Köthe Rettet Den Fußball2
TTITLE38=Kaufhaus Patzig - Köthi
TTITLE39=Kaufhaus Patzig - Kuschelteddy
TTITLE40=Kaufhaus Patzig - Köthi
TTITLE41=Kaufhaus Patzig - Wyk
TTITLE42=Kaufhaus Patzig - Köthi
TTITLE43=Kaufhaus Patzig - Grandprix 1
TTITLE44=Kaufhaus Patzig - Grandprix 2
TTITLE45=Kaufhaus Patzig - Grandprix 3
TTITLE46=Kaufhaus Patzig - Köthi
TTITLE47=Kandidat Ruft Kanzler - China
TTITLE48=Kandidat Ruft Kanzler - Rudis Neuer Job
TTITLE49=Kandidat Ruft Kanzler - Neue Regeln
TTITLE50=Kandidat Ruft Kanzler - Das Bürgertelefon
TTITLE51=Kandidat Ruft Kanzler - Bierwahl
TTITLE52=Kandidat Ruft Kanzler - Köthi
TTITLE53=Kandidat Ruft Kanzler - Kultur Elvis
TTITLE54=Kandidat Ruft Kanzler - Köthi
TTITLE55=Kandidat Ruft Kanzler - Superclement
TTITLE56=Der Kanzler and Sein Fahrer - Karin Zickt
TTITLE57=Der Kanzler and Sein Fahrer - Steuern
TTITLE58=Der Kanzler and Sein Fahrer - Hundehaufen
TTITLE59=Der Kanzler and Sein Fahrer - Sitzheizung
TTITLE60=Der Kanzler and Sein Fahrer - Köthi
TTITLE61=Der Kanzler and Sein Fahrer - Döner Oder Was
TTITLE62=Der Kanzler and Sein Fahrer - Mutta
TTITLE63=Der Kanzler and Sein Fahrer - Köthi
EXTD=RSH - Best Of Comedy Aus \nCarsten Köthe's Frühstücksclub
EXTT0=
EXTT1=
EXTT2=
EXTT3=
EXTT4=
EXTT5=
EXTT6=
EXTT7=
EXTT8=
EXTT9=
EXTT10=
EXTT11=
EXTT12=
EXTT13=
EXTT14=
EXTT15=
EXTT16=
EXTT17=
EXTT18=
EXTT19=
EXTT20=
EXTT21=
EXTT22=
EXTT23=
EXTT24=
EXTT25=
EXTT26=
EXTT27=
EXTT28=
EXTT29=
EXTT30=
EXTT31=
EXTT32=
EXTT33=
EXTT34=
EXTT35=
EXTT36=
EXTT37=
EXTT38=
EXTT39=
EXTT40=
EXTT41=
EXTT42=
EXTT43=
EXTT44=
EXTT45=
EXTT46=
EXTT47=
EXTT48=
EXTT49=
EXTT50=
EXTT51=
EXTT52=
EXTT53=
EXTT54=
EXTT55=
EXTT56=
EXTT57=
EXTT58=
EXTT59=
EXTT60=
EXTT61=
EXTT62=
EXTT63=
PLAYORDER=
